<svg width="24" height="24" viewBox="0 0 24 24" fill="none" xmlns="http://www.w3.org/2000/svg">
<rect width="24" height="24" rx="4" fill="#FEFAEF"/>
<path d="M8.66192 15.3096C8.66135 15.3096 8.66135 15.3096 8.66192 15.3096C8.01486 15.0514 7.45924 14.5987 7.0549 14.0022C6.3946 13.0268 6.25368 11.7913 6.68851 10.7773C6.72762 10.6858 6.8162 10.6254 6.91628 10.6231C7.33903 10.6128 7.76005 10.6898 8.16785 10.8526C8.81492 11.1109 9.37053 11.5629 9.77488 12.16C10.4352 13.1349 10.5755 14.3709 10.1418 15.3844C10.1027 15.4758 10.0136 15.5362 9.91407 15.5385C9.49017 15.55 9.06914 15.4724 8.66192 15.3096ZM7.10091 11.1339C7.09746 11.1339 7.09458 11.1356 7.09343 11.139C6.80585 11.9633 6.94676 12.9359 7.47592 13.7175C7.82275 14.2294 8.29784 14.6171 8.85 14.8374C9.13759 14.9524 9.43208 15.0163 9.72771 15.0295C9.73116 15.0295 9.73404 15.0278 9.73519 15.0243C10.0228 14.2001 9.88186 13.2275 9.3527 12.4458C9.00588 11.9339 8.53021 11.5463 7.97804 11.326C7.69103 11.2109 7.39655 11.1465 7.10091 11.1339Z" fill="#6B693C"/>
<path d="M15.0457 13.437C14.8283 13.2731 14.5861 13.1374 14.3273 13.0338C14.2968 13.0218 14.2658 13.0097 14.2347 12.9988C13.4709 12.7198 12.6179 12.7279 11.8207 13.0229C11.7609 13.0448 11.7022 13.0684 11.6447 13.0937C11.2013 13.2846 10.8073 13.5596 10.4852 13.8937C10.4846 13.8943 10.4846 13.8943 10.4846 13.8943C10.4507 13.9288 10.4184 13.9639 10.3868 14.0001C10.0193 14.4125 9.75815 14.906 9.64139 15.4369C9.63449 15.4697 9.63391 15.5025 9.63966 15.5341C9.65002 15.5968 9.68395 15.6549 9.73687 15.6946C9.83407 15.7676 9.93588 15.8355 10.0423 15.8965C10.174 15.9735 10.312 16.0403 10.4558 16.0978C10.9919 16.3117 11.5768 16.3819 12.1578 16.3071C12.3378 16.2841 12.5178 16.2473 12.6961 16.1961C12.7329 15.9827 12.8002 15.7791 12.8928 15.5899C12.8577 15.6049 12.8221 15.6187 12.7859 15.6319C12.6145 15.6952 12.4402 15.7435 12.2647 15.7757C11.7132 15.8786 11.1524 15.8286 10.6445 15.6256C10.48 15.56 10.3241 15.4789 10.1797 15.3846C10.4248 14.5419 11.1075 13.8293 11.9967 13.5003C12.7082 13.2369 13.4692 13.2392 14.1387 13.5061C14.3026 13.5716 14.4584 13.6527 14.6028 13.7476C14.5976 13.766 14.5919 13.7839 14.5861 13.8023C14.5223 14.0065 14.432 14.2026 14.3193 14.3866C14.5171 14.3286 14.7253 14.2969 14.941 14.2952C15.0164 14.1295 15.0762 13.9581 15.1205 13.7821C15.1279 13.7534 15.1348 13.724 15.1412 13.6947C15.1625 13.5975 15.1251 13.4969 15.0457 13.437Z" fill="#6B693C"/>
<path d="M10.1563 12.7626C9.22505 12.3905 8.45375 11.5962 8.09427 10.6368C7.66749 9.49793 7.82451 8.2245 8.50379 7.31113C8.56475 7.22888 8.66886 7.18862 8.76952 7.21047C8.93919 7.24728 9.10887 7.29905 9.27279 7.36462C10.1787 7.7264 10.9051 8.48563 11.2658 9.44731C11.6396 10.4441 11.5332 11.5335 10.9402 12.777C10.8896 12.8834 10.7723 12.9409 10.6572 12.9162C10.4893 12.8799 10.3208 12.8282 10.1563 12.7626ZM8.82473 7.74826C8.82128 7.74711 8.81783 7.74883 8.8161 7.75171C8.32088 8.51611 8.22483 9.53647 8.5705 10.4579C8.90871 11.3592 9.67886 12.0983 10.5612 12.3663C10.5646 12.3675 10.5687 12.3657 10.5704 12.3617C11.0213 11.3321 11.0926 10.4355 10.7889 9.62561C10.4444 8.70707 9.70589 8.00076 8.82473 7.74826Z" fill="#6B693C"/>
<path d="M11.5204 13.0471C11.2317 12.9315 10.9643 12.7779 10.7267 12.5904C10.6485 12.5289 10.614 12.4271 10.6376 12.3304C10.905 11.2376 11.777 10.3156 12.9135 9.92506C13.7372 9.64208 14.6177 9.65646 15.3936 9.96647C15.6824 10.0821 15.9498 10.2357 16.1874 10.4232C16.2656 10.4847 16.3001 10.5865 16.2765 10.6831C16.0096 11.7765 15.1371 12.698 14.0006 13.0885C13.1769 13.3715 12.2963 13.3565 11.5204 13.0471ZM11.1765 12.2902C11.3404 12.4035 11.5187 12.4984 11.7091 12.5743C12.3717 12.8389 13.1269 12.8504 13.8355 12.6071C14.7529 12.2919 15.4684 11.5781 15.7376 10.7222C15.5737 10.6095 15.3954 10.514 15.205 10.4381C14.5424 10.1735 13.7872 10.162 13.0786 10.4053C12.1612 10.7211 11.4462 11.4343 11.1765 12.2902Z" fill="#6B693C"/>
<path d="M11.8276 10.2127C10.9683 9.85148 10.3287 9.01863 10.1573 8.03969C9.98652 7.06017 10.3063 6.05995 10.9925 5.42899C11.0655 5.36169 11.1593 5.34329 11.2634 5.38182C12.1227 5.74303 12.7623 6.57588 12.9337 7.55539C13.1045 8.53433 12.7853 9.53398 12.1003 10.1649C12.0267 10.2317 11.9202 10.2495 11.8276 10.2127ZM11.2231 5.92478C11.2203 5.92306 11.2162 5.92363 11.2139 5.92651C10.7394 6.44359 10.5278 7.20339 10.6583 7.95226C10.7889 8.70114 11.2461 9.34418 11.8673 9.66972C11.8702 9.67145 11.8742 9.67087 11.8765 9.668C12.351 9.15092 12.5627 8.39112 12.4316 7.64225C12.3016 6.89337 11.8449 6.25033 11.2231 5.92478Z" fill="#6B693C"/>
<path d="M13.12 9.8615C12.8566 9.75624 12.6219 9.61877 12.4229 9.4537C12.3423 9.3864 12.3113 9.27655 12.3446 9.17704C12.4873 8.75314 13.3719 7.54816 14.3652 7.23412C14.9778 7.04086 15.6507 7.06789 16.2587 7.31061C16.5382 7.4222 16.7953 7.57462 17.0231 7.7627C17.1025 7.82827 17.137 7.93467 17.1099 8.0336C16.8678 8.91937 16.1385 9.65271 15.2044 9.94777C14.5412 10.1571 13.7814 10.1255 13.12 9.8615ZM12.9083 9.17244C12.9066 9.17589 12.9072 9.17992 12.9106 9.18222C13.0303 9.26159 13.1637 9.33061 13.3092 9.38871C13.8637 9.61015 14.4987 9.6366 15.0514 9.46175C15.764 9.23686 16.3312 8.70828 16.5681 8.06006C16.5693 8.05661 16.5681 8.05316 16.5653 8.05143C16.4134 7.9433 16.2478 7.853 16.0706 7.78225C15.5714 7.58267 15.0203 7.56024 14.5194 7.71841C13.8205 7.93985 13.147 8.75947 12.9083 9.17244Z" fill="#6B693C"/>
<path d="M13.0739 8.3572C13.0428 8.34512 13.0147 8.32671 12.9899 8.30256C12.3762 7.6992 12.1116 6.76627 12.2991 5.86843C12.4867 4.97001 13.1027 4.22172 13.9068 3.91458C13.9999 3.87891 14.1046 3.90135 14.1759 3.97094C14.7896 4.5743 15.0548 5.50665 14.8667 6.40507C14.6792 7.30348 14.0632 8.05236 13.2591 8.3595C13.1981 8.38193 13.132 8.38078 13.0739 8.3572ZM13.9372 4.46156C13.9349 4.45869 13.9309 4.45811 13.928 4.45984C13.3632 4.73937 12.9364 5.30419 12.7967 5.97254C12.6569 6.64146 12.822 7.32937 13.228 7.81194C13.2303 7.81481 13.2344 7.81539 13.2373 7.81366C13.8026 7.53413 14.2288 6.96931 14.3686 6.30039C14.5084 5.63204 14.3433 4.94356 13.9372 4.46156Z" fill="#6B693C"/>
<path d="M14.4244 7.45335C14.3704 7.4315 14.318 7.40791 14.2674 7.38203C14.1627 7.32797 14.1087 7.20891 14.1374 7.09387C14.3106 6.40424 14.7736 5.50697 15.5523 5.05604C16.2995 4.62409 17.218 4.58497 17.9399 4.95596C18.0279 5.0014 18.082 5.09458 18.0774 5.19408C18.04 6.00622 17.5511 6.77983 16.801 7.21408C16.0735 7.63511 15.1187 7.73116 14.4244 7.45335ZM17.5528 5.33902C17.0058 5.12161 16.3536 5.18085 15.8066 5.49662C15.24 5.82447 14.8679 6.47499 14.6907 7.0099C15.2349 7.19165 15.9832 7.09905 16.5451 6.77408C17.0944 6.45658 17.4688 5.91765 17.5528 5.33902Z" fill="#6B693C"/>
<path d="M10.7577 19.3573C10.2711 19.1628 9.91106 18.7752 9.6994 18.2092C8.71528 15.5795 11.0919 9.8583 13.5191 7.66575C13.6232 7.57199 13.7837 7.57947 13.8786 7.68415C13.9729 7.78826 13.9643 7.94931 13.8602 8.04363C11.372 10.2914 9.34049 15.7992 10.1762 18.0315C10.4138 18.6659 10.8549 18.9811 11.5273 18.9932C11.6671 18.9955 11.7798 19.1117 11.7769 19.252C11.7746 19.3923 11.6584 19.5039 11.5181 19.5016C11.2386 19.4964 10.9843 19.4481 10.7577 19.3573Z" fill="#6B693C"/>
<path d="M15.7567 17.6195C15.7124 17.6195 15.6681 17.6029 15.6347 17.5689L13.957 15.8911C13.8897 15.8239 13.8897 15.7146 13.957 15.6473C14.0243 15.58 14.1335 15.58 14.2008 15.6473L15.8786 17.325C15.9459 17.3923 15.9459 17.5016 15.8786 17.5689C15.8447 17.6029 15.801 17.6195 15.7567 17.6195Z" fill="#6B693C"/>
<path d="M14.0789 17.6195C14.0346 17.6195 13.9903 17.6029 13.957 17.5689C13.8897 17.5016 13.8897 17.3923 13.957 17.325L15.6347 15.6473C15.702 15.58 15.8113 15.58 15.8786 15.6473C15.9459 15.7146 15.9459 15.8239 15.8786 15.8911L14.2008 17.5689C14.1675 17.6029 14.1232 17.6195 14.0789 17.6195Z" fill="#6B693C"/>
<path d="M15.1204 13.7822C15.0681 13.7793 15.0151 13.7776 14.9616 13.7776C14.8345 13.7776 14.7092 13.7862 14.5861 13.8023C13.4823 13.9496 12.5804 14.7352 12.2647 15.7757C12.2123 15.9466 12.1767 16.1243 12.1577 16.3072C12.1485 16.4021 12.1433 16.4987 12.1433 16.5959C12.1433 18.1523 13.4052 19.4143 14.9616 19.4143C16.5181 19.4143 17.78 18.1523 17.78 16.5959C17.78 15.093 16.6032 13.8644 15.1204 13.7822ZM14.9616 18.8966C13.6911 18.8966 12.661 17.8665 12.661 16.5959C12.661 16.4596 12.673 16.3262 12.696 16.1962C12.7329 15.9828 12.8002 15.7792 12.8928 15.59C13.174 15.0113 13.6911 14.5684 14.3192 14.3867C14.517 14.3286 14.7253 14.297 14.9409 14.2952H14.9616C16.2322 14.2952 17.2623 15.3254 17.2623 16.5959C17.2623 17.8665 16.2322 18.8966 14.9616 18.8966Z" fill="#6B693C"/>
</svg>
