<svg width="24" height="24" viewBox="0 0 24 24" fill="none" xmlns="http://www.w3.org/2000/svg">
<rect width="24" height="24" rx="4" fill="#FEFAEF"/>
<path d="M17.8658 11.3643C17.9126 11.3643 17.9505 11.3264 17.9505 11.2797C17.9505 11.2329 17.9126 11.195 17.8658 11.195C17.819 11.195 17.7811 11.2329 17.7811 11.2797C17.7811 11.3264 17.819 11.3643 17.8658 11.3643Z" fill="#6B693C"/>
<path d="M17.9224 11.8175C17.9692 11.8175 18.0071 11.7796 18.0071 11.7328C18.0071 11.686 17.9692 11.6481 17.9224 11.6481C17.8757 11.6481 17.8378 11.686 17.8378 11.7328C17.8378 11.7796 17.8757 11.8175 17.9224 11.8175Z" fill="#6B693C"/>
<path d="M17.5827 11.6478C17.6295 11.6478 17.6674 11.6099 17.6674 11.5631C17.6674 11.5164 17.6295 11.4785 17.5827 11.4785C17.536 11.4785 17.498 11.5164 17.498 11.5631C17.498 11.6099 17.536 11.6478 17.5827 11.6478Z" fill="#6B693C"/>
<path d="M6.42599 11.8741C6.47275 11.8741 6.51066 11.8362 6.51066 11.7894C6.51066 11.7427 6.47275 11.7047 6.42599 11.7047C6.37922 11.7047 6.34131 11.7427 6.34131 11.7894C6.34131 11.8362 6.37922 11.8741 6.42599 11.8741Z" fill="#6B693C"/>
<path d="M6.4825 12.3273C6.52927 12.3273 6.56718 12.2894 6.56718 12.2426C6.56718 12.1958 6.52927 12.1579 6.4825 12.1579C6.43574 12.1579 6.39783 12.1958 6.39783 12.2426C6.39783 12.2894 6.43574 12.3273 6.4825 12.3273Z" fill="#6B693C"/>
<path d="M6.14266 12.1575C6.18943 12.1575 6.22734 12.1196 6.22734 12.0729C6.22734 12.0261 6.18943 11.9882 6.14266 11.9882C6.09589 11.9882 6.05798 12.0261 6.05798 12.0729C6.05798 12.1196 6.09589 12.1575 6.14266 12.1575Z" fill="#6B693C"/>
<path d="M10.7298 14.3662C10.7766 14.3662 10.8145 14.3283 10.8145 14.2815C10.8145 14.2347 10.7766 14.1968 10.7298 14.1968C10.6831 14.1968 10.6451 14.2347 10.6451 14.2815C10.6451 14.3283 10.6831 14.3662 10.7298 14.3662Z" fill="#6B693C"/>
<path d="M10.7865 14.8194C10.8332 14.8194 10.8711 14.7815 10.8711 14.7348C10.8711 14.688 10.8332 14.6501 10.7865 14.6501C10.7397 14.6501 10.7018 14.688 10.7018 14.7348C10.7018 14.7815 10.7397 14.8194 10.7865 14.8194Z" fill="#6B693C"/>
<path d="M10.4467 14.6489C10.4935 14.6489 10.5314 14.611 10.5314 14.5643C10.5314 14.5175 10.4935 14.4796 10.4467 14.4796C10.4 14.4796 10.3621 14.5175 10.3621 14.5643C10.3621 14.611 10.4 14.6489 10.4467 14.6489Z" fill="#6B693C"/>
<path d="M7.12005 16.0649C7.07531 16.0649 7.03057 16.0535 6.99037 16.0303L3.29961 13.8998C3.21919 13.8534 3.16992 13.7678 3.16992 13.6755V9.41391C3.16992 9.32103 3.21919 9.23552 3.29961 9.18964L6.99037 7.05912C7.07022 7.01268 7.16933 7.01268 7.24974 7.05912L10.9405 9.18964C11.0645 9.26157 11.107 9.41957 11.0356 9.5436C10.9637 9.66763 10.8046 9.70953 10.6817 9.63874L7.41001 7.75004C7.23105 7.6464 7.01019 7.6464 6.83123 7.75004L3.97864 9.39692C3.79968 9.50056 3.68924 9.69141 3.68924 9.89812V13.1919C3.68924 13.3986 3.79968 13.59 3.97864 13.6931L6.83123 15.34C7.01019 15.4436 7.23105 15.4436 7.41001 15.34L9.21886 14.2957C9.34232 14.2237 9.50089 14.2668 9.57282 14.3908C9.64474 14.5148 9.6017 14.6734 9.47768 14.7447L7.24974 16.0309C7.20954 16.053 7.16479 16.0649 7.12005 16.0649Z" fill="#6B693C"/>
<path d="M7.11988 11.8161C7.07514 11.8161 7.0304 11.8042 6.99019 11.7816L3.29944 9.65046C3.17541 9.5791 3.13294 9.42053 3.20429 9.29651C3.27565 9.17248 3.43479 9.13001 3.55825 9.20136L7.12045 11.2583L9.39708 9.97553C9.52167 9.90531 9.68025 9.94948 9.75047 10.0741C9.8207 10.1987 9.77652 10.3567 9.65193 10.4269L7.24674 11.7821C7.20766 11.8053 7.16349 11.8161 7.11988 11.8161Z" fill="#6B693C"/>
<path d="M7.11985 16.0624C6.97657 16.0624 6.86047 15.9463 6.86047 15.803V11.5572C6.86047 11.4139 6.97657 11.2979 7.11985 11.2979C7.26313 11.2979 7.37923 11.4139 7.37923 11.5572V15.8036C7.37866 15.9463 7.26313 16.0624 7.11985 16.0624Z" fill="#6B693C"/>
<path d="M18.7097 9.72217L14.3456 7.20258C14.251 7.14764 14.1338 7.14764 14.0392 7.20258L10.0002 9.53471C9.92143 9.58002 9.85008 9.63552 9.78948 9.69952C9.78948 9.69952 9.78948 9.69895 9.78891 9.69952C9.67282 9.82014 9.59013 9.96965 9.55049 10.1322C9.54992 10.1328 9.55049 10.1328 9.55049 10.1328C9.53123 10.2069 9.52161 10.284 9.52161 10.3627V14.6515C9.52161 14.9935 9.70396 15.3095 10.0002 15.48L14.0392 17.8122C14.0868 17.8393 14.1394 17.8535 14.1927 17.8535C14.2453 17.8535 14.2986 17.8393 14.3456 17.8122L16.0378 16.8352L16.343 16.6557C16.2632 16.4615 16.2524 16.2491 16.2298 16.0328L15.8526 16.2344L14.5177 17.0051C14.5115 17.0085 14.5053 17.0119 14.4991 17.0148C14.3071 17.1178 14.0771 17.1178 13.8857 17.0148C13.8795 17.0119 13.8738 17.0085 13.8676 17.0051L10.4594 15.0377C10.2584 14.9216 10.1349 14.707 10.1349 14.4748V10.5343C10.1366 10.3162 10.2476 10.1146 10.4289 9.99627C10.4391 9.98947 10.4492 9.98324 10.4594 9.97701L13.8676 8.00959C14.0686 7.8935 14.3161 7.8935 14.5177 8.00959L17.9248 9.97701C17.935 9.98324 17.9457 9.98947 17.9554 9.99627C18.1371 10.1146 18.2481 10.3162 18.2498 10.5343L18.2685 13.3144C18.3761 13.2985 18.4962 13.3144 18.6083 13.3144C18.704 13.3144 18.7986 13.3031 18.8915 13.3144L18.8632 9.98777C18.8632 9.87791 18.8048 9.7771 18.7097 9.72217Z" fill="#6B693C"/>
<path d="M14.1926 12.8289C14.1394 12.8289 14.0867 12.8153 14.0391 12.7881L9.67502 10.2686C9.52834 10.1836 9.47794 9.99672 9.56289 9.85004C9.64784 9.70336 9.83529 9.65296 9.98141 9.73791L14.1926 12.1692L18.4033 9.73791C18.5494 9.65296 18.7368 9.70336 18.8218 9.85004C18.9067 9.99672 18.8563 10.1842 18.7096 10.2686L14.3455 12.7881C14.2985 12.8153 14.2459 12.8289 14.1926 12.8289Z" fill="#6B693C"/>
<path d="M14.1929 17.8507C14.0235 17.8507 13.8865 17.7137 13.8865 17.5443V12.5227C13.8865 12.3534 14.0235 12.2163 14.1929 12.2163C14.3622 12.2163 14.4992 12.3534 14.4992 12.5227V17.5443C14.4992 17.7137 14.3622 17.8507 14.1929 17.8507Z" fill="#6B693C"/>
<path d="M19.4194 16.7859C19.3758 16.7859 19.3322 16.7695 19.2993 16.7361L17.6474 15.0841C17.5811 15.0178 17.5811 14.9102 17.6474 14.844C17.7136 14.7777 17.8212 14.7777 17.8875 14.844L19.5394 16.496C19.6057 16.5622 19.6057 16.6698 19.5394 16.7361C19.506 16.7695 19.463 16.7859 19.4194 16.7859Z" fill="#6B693C"/>
<path d="M17.7674 16.7859C17.7238 16.7859 17.6802 16.7695 17.6474 16.7361C17.5811 16.6698 17.5811 16.5622 17.6474 16.496L19.2993 14.844C19.3656 14.7777 19.4732 14.7777 19.5394 14.844C19.6057 14.9102 19.6057 15.0178 19.5394 15.0841L17.8875 16.7361C17.8546 16.7695 17.811 16.7859 17.7674 16.7859Z" fill="#6B693C"/>
<path d="M18.8632 12.9601C18.7703 12.951 18.6758 12.9459 18.5801 12.9459C18.4685 12.9459 18.3581 12.9527 18.2499 12.9652C16.8731 13.1288 15.8051 14.3 15.8051 15.7209C15.8051 15.8965 15.8215 16.0681 15.8526 16.234C15.8917 16.4436 15.954 16.6446 16.0378 16.8349C16.4671 17.8129 17.444 18.4959 18.5801 18.4959C20.1125 18.4959 21.3551 17.2534 21.3551 15.7209C21.3551 14.2842 20.2626 13.1022 18.8632 12.9601ZM18.5801 17.9862C17.6326 17.9862 16.8205 17.4041 16.4829 16.5778C16.4031 16.3835 16.3499 16.1763 16.3272 15.9599C16.3187 15.8812 16.3147 15.8013 16.3147 15.7209C16.3147 14.582 17.1552 13.6397 18.2499 13.4794C18.3575 13.4635 18.4679 13.4556 18.5801 13.4556C18.6758 13.4556 18.7703 13.4618 18.8632 13.4732C19.9806 13.6125 20.8454 14.5656 20.8454 15.7209C20.8454 16.9719 19.8311 17.9862 18.5801 17.9862Z" fill="#6B693C"/>
</svg>
