<svg width="24" height="25" viewBox="0 0 24 25" fill="none" xmlns="http://www.w3.org/2000/svg">
<rect y="0.487427" width="24" height="23.8992" rx="4" fill="#FEFAEF"/>
<path d="M13.6833 8.08248L13.668 8.06773C13.2501 7.66999 13.0099 7.11105 13.0099 6.53472V6.47572H13.4019C13.5685 6.47572 13.7029 6.34139 13.7029 6.17597V4.86791C13.7029 4.70196 13.5685 4.56763 13.4019 4.56763H9.32044C9.15432 4.56763 9.01942 4.70196 9.01942 4.86791V6.17597C9.01942 6.34139 9.15432 6.47572 9.32044 6.47572H9.71245V6.53472C9.71245 7.11105 9.4728 7.66999 9.05434 8.06773L9.03952 8.08248C8.50309 8.59296 8.19519 9.30994 8.19519 10.0491V17.6409C8.19519 18.6065 8.9845 19.3925 9.95422 19.3925H12.4269C12.3322 19.2065 12.264 19.0048 12.228 18.7925H9.95422C9.31673 18.7925 8.79776 18.2757 8.79776 17.6409V10.8319H13.9251V16.346C14.0568 16.3202 14.1928 16.307 14.3319 16.307C14.3975 16.307 14.4626 16.3102 14.5272 16.316V10.0491C14.5272 9.30994 14.2198 8.59296 13.6833 8.08248ZM9.62198 5.87622V5.16766H13.1009V5.87622H9.62198ZM8.79776 10.2324V10.0491C8.79776 9.47273 9.03741 8.91431 9.45534 8.51605L9.47068 8.50129C10.0071 7.99082 10.315 7.27383 10.315 6.53472V6.47572H12.4079V6.53472C12.4079 7.27383 12.7152 7.99082 13.2517 8.50182L13.267 8.51605C13.6849 8.91431 13.9251 9.47273 13.9251 10.0491V10.2324H8.79776Z" fill="#6B693C"/>
<path d="M9.95476 17.8371C9.84578 17.8371 9.75743 17.7492 9.75743 17.6406V13.1812C9.75743 13.0158 9.62253 12.8815 9.45641 12.8815C9.2903 12.8815 9.1554 13.0158 9.1554 13.1812V17.6406C9.1554 18.0795 9.51408 18.4372 9.95529 18.4372C10.1214 18.4372 10.2563 18.3028 10.2563 18.1374C10.2558 17.9715 10.1209 17.8371 9.95476 17.8371Z" fill="#6B693C"/>
<path d="M14.5272 15.8579C14.4627 15.8537 14.3976 15.8511 14.332 15.8511C14.1934 15.8511 14.0574 15.8621 13.9252 15.8827C12.6867 16.0771 11.7397 17.1449 11.7397 18.4324C11.7397 18.5546 11.7482 18.6748 11.7646 18.7922C11.7942 19.0014 11.8482 19.2026 11.9249 19.3923C12.3074 20.3426 13.2411 21.0138 14.332 21.0138C15.7635 21.0138 16.9242 19.858 16.9242 18.4324C16.9242 17.0722 15.8678 15.9575 14.5272 15.8579ZM14.332 20.5581C13.4998 20.5581 12.7788 20.084 12.427 19.3923C12.3323 19.2063 12.264 19.0045 12.228 18.7922C12.2079 18.6753 12.1974 18.5552 12.1974 18.4324C12.1974 17.3967 12.9406 16.5343 13.9252 16.3457C14.0569 16.3199 14.1929 16.3068 14.332 16.3068C14.3976 16.3068 14.4627 16.3099 14.5272 16.3157C15.6149 16.4137 16.4666 17.3235 16.4666 18.4324C16.4666 19.6067 15.5112 20.5581 14.332 20.5581Z" fill="#6B693C"/>
<path d="M15.1159 19.3705C15.0752 19.3705 15.0345 19.3552 15.0038 19.3241L13.4606 17.7874C13.3987 17.7258 13.3987 17.6257 13.4606 17.564C13.5225 17.5024 13.623 17.5024 13.6849 17.564L15.2281 19.1007C15.29 19.1624 15.29 19.2625 15.2281 19.3241C15.1969 19.3552 15.1561 19.3705 15.1159 19.3705Z" fill="#6B693C"/>
<path d="M13.5728 19.3705C13.532 19.3705 13.4913 19.3552 13.4606 19.3241C13.3987 19.2625 13.3987 19.1624 13.4606 19.1007L15.0038 17.564C15.0657 17.5024 15.1662 17.5024 15.2281 17.564C15.29 17.6257 15.29 17.7258 15.2281 17.7874L13.6849 19.3241C13.6542 19.3552 13.6135 19.3705 13.5728 19.3705Z" fill="#6B693C"/>
</svg>
