<svg width="20" height="22" viewBox="0 0 20 22" fill="none" xmlns="http://www.w3.org/2000/svg">
<path d="M13.9648 1C14.3373 3.23509 12.0037 4.92907 10.6989 5.68864C10.3141 5.9127 9.87986 5.62738 9.94622 5.18701C10.1692 3.70644 10.9844 1.00008 13.9648 1Z" stroke="#FEFAEF" stroke-width="2"/>
<path d="M6.78519 5.61536C7.70494 5.61536 8.51903 5.81988 9.13852 6.04626C9.91985 6.33182 10.83 6.33181 11.6113 6.04625C12.2307 5.81987 13.0449 5.61536 13.9646 5.61536C15.0777 5.61536 16.4928 6.21935 17.5543 7.42732C13.9647 10.2307 14.9903 14.8461 18.3431 16.0683C17.2727 19.0094 15.2378 21 13.4518 21C11.9133 21 11.9134 20.282 10.3749 20.282C8.83647 20.282 8.83647 21 7.29801 21C4.73391 21 1.65698 16.8974 1.65698 11.7692C1.65698 7.66664 4.73391 5.61536 6.78519 5.61536Z" stroke="#FEFAEF" stroke-width="2"/>
</svg>
