<svg width="184" height="56" viewBox="0 0 184 56" fill="none" xmlns="http://www.w3.org/2000/svg">
  <path d="M43.1422 30.1666C43.1422 28.6733 42.6928 27.5533 41.7941 26.8066C40.9264 26.0289 39.8107 25.64 38.4472 25.64C37.0216 25.64 35.6735 25.9822 34.4029 26.6666V45.3333H30.2192V21.9533H34.0775L34.4029 22.7C35.0227 22.3577 35.7665 22.0933 36.6342 21.9066C37.502 21.6888 38.4007 21.58 39.3304 21.58C40.9109 21.58 42.2745 21.86 43.4211 22.42C44.6607 22.98 45.6214 23.82 46.3032 24.94C47.016 26.06 47.3724 27.4755 47.3724 29.1866V45.3333H43.1422V30.1666Z" fill="#502827"/>
  <path d="M70.1038 45.3333C66.7568 45.6755 64.3396 45.8466 62.852 45.8466C59.5981 45.8466 57.0104 45.24 55.089 44.0266C53.1676 42.8133 52.2069 40.62 52.2069 37.4466V33.5733C52.2069 30.4933 53.276 28.4244 55.4144 27.3666C56.4371 26.8689 57.6457 26.62 59.0402 26.62C60.2799 26.62 61.535 26.8066 62.8056 27.18C64.0762 27.5533 65.0988 27.9889 65.8736 28.4866C65.8736 27.18 65.3778 26.2 64.3861 25.5466C63.3944 24.8933 61.9688 24.5666 60.1094 24.5666L60.4348 21.58C63.4099 21.58 65.5947 22.0622 66.9893 23.0266C68.4148 23.96 69.2825 25.08 69.5924 26.3866C69.9333 27.6933 70.1038 29.3733 70.1038 31.4266V45.3333ZM65.8736 32.7333C65.0679 32.2666 64.0917 31.8466 62.945 31.4733C61.7984 31.1 60.7292 30.9133 59.7375 30.9133C57.5372 30.9133 56.437 31.9555 56.437 34.04V37.12C56.437 40.3244 58.4824 41.9266 62.5731 41.9266C63.5648 41.9266 64.665 41.8333 65.8736 41.6466V32.7333Z" fill="#502827"/>
  <path d="M80.3266 45.94C78.0333 45.7533 76.4063 45.0689 75.4456 43.8866C74.4849 42.7044 74.0046 41.1333 74.0046 39.1733V12.6666H78.2812V21.9533H83.1157L82.0001 25.9666H78.2812V39.1733C78.2812 40.2622 78.5601 41.0711 79.118 41.6C79.6758 42.0977 80.497 42.4244 81.5817 42.58L80.3266 45.94Z" fill="#502827"/>
  <path d="M99.0461 44.3066C98.4883 44.7733 97.822 45.1466 97.0472 45.4266C96.2724 45.7066 95.4512 45.8466 94.5835 45.8466C88.7573 45.8466 85.8442 43 85.8442 37.3066V21.9533H90.0744V36.9333C90.0744 38.5511 90.4308 39.7644 91.1435 40.5733C91.8873 41.3511 93.034 41.74 94.5835 41.74C96.133 41.74 97.2486 41.32 97.9304 40.48C98.6122 39.6089 98.9531 38.38 98.9531 36.7933V21.9533H103.183V45.3333H99.1855L99.0461 44.3066Z" fill="#502827"/>
  <path d="M107.798 21.9533H111.795L111.981 22.6533C113.314 21.9377 114.786 21.58 116.398 21.58C117.513 21.58 118.815 21.7511 120.302 22.0933L119.28 26.1533C118.443 25.78 117.544 25.5933 116.583 25.5933C115.313 25.5933 114.228 25.92 113.329 26.5733C112.462 27.1955 112.028 28.0666 112.028 29.1866V45.3333H107.798V21.9533Z" fill="#502827"/>
  <path d="M136.915 43.7C135.8 44.4155 134.529 44.96 133.104 45.3333C131.678 45.7066 130.252 45.8933 128.827 45.8933C126.534 45.8933 124.705 45.3333 123.342 44.2133C122.009 43.0622 121.343 41.3511 121.343 39.08V29.5133C121.343 26.9933 122.118 25.0333 123.667 23.6333C125.248 22.2333 127.324 21.5333 129.896 21.5333C132.468 21.5333 134.467 22.2333 135.893 23.6333C137.349 25.0022 138.078 26.9155 138.078 29.3733V36.0933L125.619 36.7933V38.6133C125.619 39.7022 125.929 40.5422 126.549 41.1333C127.2 41.6933 128.099 41.9733 129.245 41.9733C130.95 41.9733 132.98 41.3511 135.335 40.1066L136.915 43.7ZM133.801 29.3266C133.801 28.0511 133.398 27.1177 132.592 26.5266C131.787 25.9044 130.872 25.5933 129.85 25.5933C128.517 25.5933 127.479 25.9666 126.735 26.7133C125.991 27.4289 125.619 28.3777 125.619 29.56V32.8266L133.801 32.36V29.3266Z" fill="#502827"/>
  <path d="M143.497 12.6666H147.728V45.3333H143.497V12.6666Z" fill="#502827"/>
  <path d="M155.073 12.6666H159.304V45.3333H155.073V12.6666Z" fill="#502827"/>
  <path d="M180.223 43.7C179.108 44.4155 177.837 44.96 176.411 45.3333C174.986 45.7066 173.56 45.8933 172.135 45.8933C169.841 45.8933 168.013 45.3333 166.649 44.2133C165.317 43.0622 164.651 41.3511 164.651 39.08V29.5133C164.651 26.9933 165.425 25.0333 166.975 23.6333C168.555 22.2333 170.632 21.5333 173.204 21.5333C175.776 21.5333 177.775 22.2333 179.2 23.6333C180.657 25.0022 181.385 26.9155 181.385 29.3733V36.0933L168.927 36.7933V38.6133C168.927 39.7022 169.237 40.5422 169.857 41.1333C170.508 41.6933 171.406 41.9733 172.553 41.9733C174.258 41.9733 176.287 41.3511 178.643 40.1066L180.223 43.7ZM177.109 29.3266C177.109 28.0511 176.706 27.1177 175.9 26.5266C175.094 25.9044 174.18 25.5933 173.157 25.5933C171.825 25.5933 170.787 25.9666 170.043 26.7133C169.299 27.4289 168.927 28.3777 168.927 29.56V32.8266L177.109 32.36V29.3266Z" fill="#502827"/>
  <path d="M30.0548 16.7502C24.1178 12.0184 27.4851 6.25967 29.9108 3.97177C30.5252 3.32207 31.5001 2.66058 32.6637 3.13365C38.2484 5.40479 38.2913 10.2415 37.193 12.8673C34.3792 17.4817 31.9985 18.2994 30.0548 16.7502Z" fill="#E4CB88"/>
  <path fill-rule="evenodd" clip-rule="evenodd" d="M28.9696 10.8994C28.9678 8.08391 29.4042 4.95698 30.8089 2.38579L31.9734 3.02694C30.7206 5.32024 30.2961 8.19194 30.2978 10.8986C30.2995 13.5976 30.7247 16.0618 31.1102 17.4873L29.8285 17.8366C29.4139 16.3038 28.9714 13.7224 28.9696 10.8994Z" fill="#FEFAEF"/>
  <path fill-rule="evenodd" clip-rule="evenodd" d="M35.0123 9.67714C35.0141 12.4926 34.5777 15.6196 33.1731 18.1907L32.0085 17.5496C33.2614 15.2563 33.6859 12.3846 33.6842 9.67798C33.6825 6.97892 33.2572 4.5147 32.8717 3.08922L34.1535 2.73989C34.568 4.27275 35.0106 6.8541 35.0123 9.67714Z" fill="#FEFAEF"/>
  <path d="M25.7486 24.2874C17.1448 32.586 8.91179 26.1059 5.87079 21.8286C4.9915 20.7305 4.17006 19.0657 5.15068 17.3438C9.85818 9.0797 17.3797 10.0284 21.2259 12.2991C27.7984 17.6725 28.5654 21.5705 25.7486 24.2874Z" fill="#6B693C"/>
  <path fill-rule="evenodd" clip-rule="evenodd" d="M16.484 24.3773C12.1415 23.7928 7.44879 22.4661 3.82487 19.7815L4.61417 18.7086C7.98416 21.2051 12.4265 22.4859 16.6615 23.0559C20.8891 23.6249 24.8401 23.4764 27.1671 23.1683L27.3398 24.4901C24.903 24.8127 20.834 24.9628 16.484 24.3773Z" fill="#FEFAEF"/>
  <path fill-rule="evenodd" clip-rule="evenodd" d="M15.7582 15.421C20.1007 16.0055 24.7934 17.3322 28.4173 20.0169L27.628 21.0897C24.258 18.5932 19.8157 17.3124 15.5807 16.7424C11.3531 16.1734 7.40204 16.3219 5.07507 16.63L4.90235 15.3083C7.33923 14.9856 11.4082 14.8356 15.7582 15.421Z" fill="#FEFAEF"/>
</svg>
