<svg width="10" height="13" viewBox="0 0 10 13" fill="none" xmlns="http://www.w3.org/2000/svg">
<path d="M4.99992 8.33337C4.44436 8.33337 3.97214 8.13893 3.58325 7.75004C3.19436 7.36115 2.99992 6.88893 2.99992 6.33337V2.33337C2.99992 1.77782 3.19436 1.3056 3.58325 0.916707C3.97214 0.527818 4.44436 0.333374 4.99992 0.333374C5.55547 0.333374 6.0277 0.527818 6.41658 0.916707C6.80547 1.3056 6.99992 1.77782 6.99992 2.33337V6.33337C6.99992 6.88893 6.80547 7.36115 6.41658 7.75004C6.0277 8.13893 5.55547 8.33337 4.99992 8.33337ZM4.33325 13V10.95C3.1777 10.7945 2.22214 10.2778 1.46659 9.40004C0.71103 8.52226 0.333252 7.50004 0.333252 6.33337H1.66659C1.66659 7.2556 1.99159 8.04171 2.64159 8.69171C3.29159 9.34171 4.0777 9.66671 4.99992 9.66671C5.92214 9.66671 6.70825 9.34171 7.35825 8.69171C8.00825 8.04171 8.33325 7.2556 8.33325 6.33337H9.66658C9.66658 7.50004 9.28881 8.52226 8.53325 9.40004C7.7777 10.2778 6.82214 10.7945 5.66658 10.95V13H4.33325ZM4.99992 7.00004C5.18881 7.00004 5.34714 6.93615 5.47492 6.80837C5.6027 6.6806 5.66658 6.52226 5.66658 6.33337V2.33337C5.66658 2.14449 5.6027 1.98615 5.47492 1.85837C5.34714 1.7306 5.18881 1.66671 4.99992 1.66671C4.81103 1.66671 4.6527 1.7306 4.52492 1.85837C4.39714 1.98615 4.33325 2.14449 4.33325 2.33337V6.33337C4.33325 6.52226 4.39714 6.6806 4.52492 6.80837C4.6527 6.93615 4.81103 7.00004 4.99992 7.00004Z" fill="#694948"/>
</svg>
